<mxfile host="app.diagrams.net" modified="2020-12-05T06:00:08.280Z" agent="5.0 (Windows NT 10.0; Win64; x64) AppleWebKit/537.36 (KHTML, like Gecko) Chrome/86.0.4240.198 Safari/537.36" etag="TUd9EeM9CL-tgGrI3lnB" version="13.10.9" type="github">
  <diagram name="Page-1" id="e7e014a7-5840-1c2e-5031-d8a46d1fe8dd">
    <mxGraphModel dx="1422" dy="762" grid="1" gridSize="10" guides="1" tooltips="1" connect="1" arrows="1" fold="1" page="1" pageScale="1" pageWidth="1169" pageHeight="826" background="#ffffff" math="0" shadow="0">
      <root>
        <mxCell id="0" />
        <mxCell id="1" parent="0" />
        <mxCell id="pjRjvjTuiItraaZkLmIK-75" value="" style="whiteSpace=wrap;html=1;aspect=fixed;labelBackgroundColor=#ffffff;" parent="1" vertex="1">
          <mxGeometry x="176" y="28" width="770" height="770" as="geometry" />
        </mxCell>
        <mxCell id="pjRjvjTuiItraaZkLmIK-51" style="rounded=0;orthogonalLoop=1;jettySize=auto;html=1;exitX=0.5;exitY=0.5;exitDx=0;exitDy=0;exitPerimeter=0;entryX=0.342;entryY=0.013;entryDx=0;entryDy=0;endArrow=none;endFill=0;entryPerimeter=0;" parent="1" source="pjRjvjTuiItraaZkLmIK-41" target="pjRjvjTuiItraaZkLmIK-45" edge="1">
          <mxGeometry relative="1" as="geometry" />
        </mxCell>
        <mxCell id="pjRjvjTuiItraaZkLmIK-59" style="edgeStyle=none;rounded=0;orthogonalLoop=1;jettySize=auto;html=1;exitX=0.5;exitY=0.5;exitDx=0;exitDy=0;exitPerimeter=0;entryX=0;entryY=0.5;entryDx=0;entryDy=0;startArrow=none;startFill=0;endArrow=none;endFill=0;" parent="1" source="pjRjvjTuiItraaZkLmIK-41" target="pjRjvjTuiItraaZkLmIK-44" edge="1">
          <mxGeometry relative="1" as="geometry" />
        </mxCell>
        <mxCell id="pjRjvjTuiItraaZkLmIK-60" style="edgeStyle=none;rounded=0;orthogonalLoop=1;jettySize=auto;html=1;exitX=0.5;exitY=0.5;exitDx=0;exitDy=0;exitPerimeter=0;entryX=0;entryY=0.5;entryDx=0;entryDy=0;startArrow=none;startFill=0;endArrow=none;endFill=0;" parent="1" source="pjRjvjTuiItraaZkLmIK-41" target="pjRjvjTuiItraaZkLmIK-46" edge="1">
          <mxGeometry relative="1" as="geometry" />
        </mxCell>
        <mxCell id="pjRjvjTuiItraaZkLmIK-61" style="edgeStyle=none;rounded=0;orthogonalLoop=1;jettySize=auto;html=1;exitX=0.5;exitY=0.5;exitDx=0;exitDy=0;exitPerimeter=0;entryX=0;entryY=0.5;entryDx=0;entryDy=0;startArrow=none;startFill=0;endArrow=none;endFill=0;" parent="1" source="pjRjvjTuiItraaZkLmIK-41" target="pjRjvjTuiItraaZkLmIK-47" edge="1">
          <mxGeometry relative="1" as="geometry" />
        </mxCell>
        <mxCell id="pjRjvjTuiItraaZkLmIK-73" style="edgeStyle=none;rounded=0;orthogonalLoop=1;jettySize=auto;html=1;startArrow=none;startFill=0;endArrow=block;endFill=0;endSize=22;" parent="1" edge="1">
          <mxGeometry relative="1" as="geometry">
            <mxPoint x="135" y="573" as="targetPoint" />
            <mxPoint x="135" y="303" as="sourcePoint" />
          </mxGeometry>
        </mxCell>
        <mxCell id="pjRjvjTuiItraaZkLmIK-41" value="ADMIN" style="shape=umlActor;verticalLabelPosition=bottom;verticalAlign=top;html=1;outlineConnect=0;" parent="1" vertex="1">
          <mxGeometry x="120" y="223" width="30" height="60" as="geometry" />
        </mxCell>
        <mxCell id="pjRjvjTuiItraaZkLmIK-62" style="edgeStyle=none;rounded=0;orthogonalLoop=1;jettySize=auto;html=1;exitX=0.5;exitY=0.5;exitDx=0;exitDy=0;exitPerimeter=0;entryX=0;entryY=0.5;entryDx=0;entryDy=0;startArrow=none;startFill=0;endArrow=none;endFill=0;" parent="1" source="pjRjvjTuiItraaZkLmIK-42" target="pjRjvjTuiItraaZkLmIK-48" edge="1">
          <mxGeometry relative="1" as="geometry" />
        </mxCell>
        <mxCell id="pjRjvjTuiItraaZkLmIK-74" style="edgeStyle=none;rounded=0;orthogonalLoop=1;jettySize=auto;html=1;exitX=0.5;exitY=0.5;exitDx=0;exitDy=0;exitPerimeter=0;entryX=0;entryY=0.5;entryDx=0;entryDy=0;startArrow=none;startFill=0;endArrow=none;endFill=0;endSize=22;" parent="1" source="pjRjvjTuiItraaZkLmIK-42" target="pjRjvjTuiItraaZkLmIK-63" edge="1">
          <mxGeometry relative="1" as="geometry" />
        </mxCell>
        <mxCell id="pjRjvjTuiItraaZkLmIK-82" style="edgeStyle=none;rounded=0;orthogonalLoop=1;jettySize=auto;html=1;exitX=0.5;exitY=0.5;exitDx=0;exitDy=0;exitPerimeter=0;entryX=-0.008;entryY=0.638;entryDx=0;entryDy=0;entryPerimeter=0;startArrow=none;startFill=0;endArrow=none;endFill=0;endSize=22;" parent="1" source="pjRjvjTuiItraaZkLmIK-42" target="pjRjvjTuiItraaZkLmIK-79" edge="1">
          <mxGeometry relative="1" as="geometry" />
        </mxCell>
        <mxCell id="pjRjvjTuiItraaZkLmIK-42" value="USER" style="shape=umlActor;verticalLabelPosition=bottom;verticalAlign=top;html=1;outlineConnect=0;" parent="1" vertex="1">
          <mxGeometry x="120" y="576" width="30" height="60" as="geometry" />
        </mxCell>
        <mxCell id="pjRjvjTuiItraaZkLmIK-64" style="edgeStyle=none;rounded=0;orthogonalLoop=1;jettySize=auto;html=1;exitX=0.5;exitY=0.5;exitDx=0;exitDy=0;exitPerimeter=0;entryX=0.975;entryY=0.638;entryDx=0;entryDy=0;entryPerimeter=0;startArrow=none;startFill=0;endArrow=none;endFill=0;" parent="1" source="pjRjvjTuiItraaZkLmIK-43" target="pjRjvjTuiItraaZkLmIK-52" edge="1">
          <mxGeometry relative="1" as="geometry" />
        </mxCell>
        <mxCell id="pjRjvjTuiItraaZkLmIK-43" value="MAIL SERVER" style="shape=umlActor;verticalLabelPosition=bottom;verticalAlign=top;html=1;outlineConnect=0;" parent="1" vertex="1">
          <mxGeometry x="1040" y="273" width="30" height="60" as="geometry" />
        </mxCell>
        <mxCell id="pjRjvjTuiItraaZkLmIK-44" value="CRUD &lt;br&gt;CUADRANTE" style="ellipse;whiteSpace=wrap;html=1;" parent="1" vertex="1">
          <mxGeometry x="380" y="63" width="120" height="80" as="geometry" />
        </mxCell>
        <mxCell id="pjRjvjTuiItraaZkLmIK-45" value="CD &lt;br&gt;PERSONA" style="ellipse;whiteSpace=wrap;html=1;" parent="1" vertex="1">
          <mxGeometry x="410" y="373" width="120" height="80" as="geometry" />
        </mxCell>
        <mxCell id="pjRjvjTuiItraaZkLmIK-46" value="CRUD &lt;br&gt;SERVICIO" style="ellipse;whiteSpace=wrap;html=1;" parent="1" vertex="1">
          <mxGeometry x="333" y="163" width="120" height="80" as="geometry" />
        </mxCell>
        <mxCell id="pjRjvjTuiItraaZkLmIK-54" style="edgeStyle=none;rounded=0;orthogonalLoop=1;jettySize=auto;html=1;dashed=1;endArrow=open;endFill=0;startArrow=none;startFill=0;exitX=0;exitY=0.5;exitDx=0;exitDy=0;" parent="1" source="pjRjvjTuiItraaZkLmIK-47" target="pjRjvjTuiItraaZkLmIK-46" edge="1">
          <mxGeometry relative="1" as="geometry">
            <mxPoint x="570" y="536" as="sourcePoint" />
          </mxGeometry>
        </mxCell>
        <mxCell id="pjRjvjTuiItraaZkLmIK-58" style="edgeStyle=none;rounded=0;orthogonalLoop=1;jettySize=auto;html=1;exitX=0;exitY=0.5;exitDx=0;exitDy=0;entryX=1;entryY=0.5;entryDx=0;entryDy=0;startArrow=none;startFill=0;endArrow=open;endFill=0;dashed=1;" parent="1" source="pjRjvjTuiItraaZkLmIK-47" target="pjRjvjTuiItraaZkLmIK-48" edge="1">
          <mxGeometry relative="1" as="geometry" />
        </mxCell>
        <mxCell id="pjRjvjTuiItraaZkLmIK-47" value="CUD &lt;br&gt;NOMBRAMIENTO" style="ellipse;whiteSpace=wrap;html=1;" parent="1" vertex="1">
          <mxGeometry x="620" y="360" width="120" height="80" as="geometry" />
        </mxCell>
        <mxCell id="pjRjvjTuiItraaZkLmIK-48" value="CONSULTAR&lt;br&gt;NOMBRAMIENTO" style="ellipse;whiteSpace=wrap;html=1;" parent="1" vertex="1">
          <mxGeometry x="430" y="583" width="120" height="80" as="geometry" />
        </mxCell>
        <mxCell id="pjRjvjTuiItraaZkLmIK-67" style="edgeStyle=none;rounded=0;orthogonalLoop=1;jettySize=auto;html=1;exitX=0;exitY=0.5;exitDx=0;exitDy=0;startArrow=open;startFill=0;endArrow=none;endFill=0;dashed=1;entryX=1;entryY=0.5;entryDx=0;entryDy=0;" parent="1" source="pjRjvjTuiItraaZkLmIK-52" target="pjRjvjTuiItraaZkLmIK-44" edge="1">
          <mxGeometry relative="1" as="geometry">
            <mxPoint x="440" y="173" as="targetPoint" />
          </mxGeometry>
        </mxCell>
        <mxCell id="pjRjvjTuiItraaZkLmIK-52" value="NOTIFICAR" style="ellipse;whiteSpace=wrap;html=1;" parent="1" vertex="1">
          <mxGeometry x="810" y="213" width="120" height="80" as="geometry" />
        </mxCell>
        <mxCell id="pjRjvjTuiItraaZkLmIK-56" style="edgeStyle=none;rounded=0;orthogonalLoop=1;jettySize=auto;html=1;exitX=0;exitY=0.5;exitDx=0;exitDy=0;dashed=1;endArrow=open;endFill=0;startArrow=none;startFill=0;entryX=1;entryY=1;entryDx=0;entryDy=0;" parent="1" source="pjRjvjTuiItraaZkLmIK-47" target="pjRjvjTuiItraaZkLmIK-44" edge="1">
          <mxGeometry relative="1" as="geometry">
            <mxPoint x="597.5735931288073" y="517.7157287525381" as="sourcePoint" />
            <mxPoint x="930" y="303" as="targetPoint" />
          </mxGeometry>
        </mxCell>
        <mxCell id="pjRjvjTuiItraaZkLmIK-57" value="&amp;lt;&amp;lt;include&amp;gt;&amp;gt;" style="text;html=1;align=center;verticalAlign=middle;resizable=0;points=[];autosize=1;labelBackgroundColor=#ffffff;" parent="1" vertex="1">
          <mxGeometry x="521" y="253" width="80" height="20" as="geometry" />
        </mxCell>
        <mxCell id="pjRjvjTuiItraaZkLmIK-65" style="edgeStyle=none;rounded=0;orthogonalLoop=1;jettySize=auto;html=1;entryX=0.5;entryY=1;entryDx=0;entryDy=0;startArrow=open;startFill=0;endArrow=none;endFill=0;dashed=1;" parent="1" source="pjRjvjTuiItraaZkLmIK-63" target="pjRjvjTuiItraaZkLmIK-48" edge="1">
          <mxGeometry relative="1" as="geometry" />
        </mxCell>
        <mxCell id="Uhh7G0hbcJphL9YLGXfl-6" style="rounded=0;orthogonalLoop=1;jettySize=auto;html=1;exitX=1;exitY=0.5;exitDx=0;exitDy=0;entryX=0.5;entryY=1;entryDx=0;entryDy=0;startArrow=none;startFill=0;endArrow=open;endFill=0;dashed=1;" edge="1" parent="1" source="pjRjvjTuiItraaZkLmIK-63" target="pjRjvjTuiItraaZkLmIK-52">
          <mxGeometry relative="1" as="geometry" />
        </mxCell>
        <mxCell id="pjRjvjTuiItraaZkLmIK-63" value="SOLICITAR&lt;br&gt;CAMBIO" style="ellipse;whiteSpace=wrap;html=1;" parent="1" vertex="1">
          <mxGeometry x="430" y="713" width="120" height="80" as="geometry" />
        </mxCell>
        <mxCell id="pjRjvjTuiItraaZkLmIK-55" value="&amp;lt;&amp;lt;include&amp;gt;&amp;gt;" style="text;html=1;align=center;verticalAlign=middle;resizable=0;points=[];autosize=1;labelBackgroundColor=#ffffff;" parent="1" vertex="1">
          <mxGeometry x="478" y="293" width="80" height="20" as="geometry" />
        </mxCell>
        <mxCell id="pjRjvjTuiItraaZkLmIK-68" value="&lt;span style=&quot;background-color: rgb(255 , 255 , 255)&quot;&gt;&amp;lt;&amp;lt;extend&amp;gt;&amp;gt;&lt;/span&gt;" style="text;html=1;align=center;verticalAlign=middle;resizable=0;points=[];autosize=1;" parent="1" vertex="1">
          <mxGeometry x="578" y="153" width="80" height="20" as="geometry" />
        </mxCell>
        <mxCell id="pjRjvjTuiItraaZkLmIK-71" style="edgeStyle=none;rounded=0;orthogonalLoop=1;jettySize=auto;html=1;startArrow=open;startFill=0;endArrow=none;endFill=0;dashed=1;entryX=0.5;entryY=0;entryDx=0;entryDy=0;" parent="1" source="pjRjvjTuiItraaZkLmIK-52" target="pjRjvjTuiItraaZkLmIK-47" edge="1">
          <mxGeometry relative="1" as="geometry">
            <mxPoint x="450" y="183" as="targetPoint" />
            <mxPoint x="760" y="113" as="sourcePoint" />
          </mxGeometry>
        </mxCell>
        <mxCell id="pjRjvjTuiItraaZkLmIK-72" value="&lt;span style=&quot;background-color: rgb(255 , 255 , 255)&quot;&gt;&amp;lt;&amp;lt;extend&amp;gt;&amp;gt;&lt;/span&gt;" style="text;html=1;align=center;verticalAlign=middle;resizable=0;points=[];autosize=1;" parent="1" vertex="1">
          <mxGeometry x="690" y="320" width="80" height="20" as="geometry" />
        </mxCell>
        <mxCell id="pjRjvjTuiItraaZkLmIK-78" value="TODO &amp;lt;&amp;lt;include&amp;gt;&amp;gt;&lt;br&gt;login" style="shape=note2;boundedLbl=1;whiteSpace=wrap;html=1;size=25;verticalAlign=top;align=center;labelBackgroundColor=#ffffff;" parent="1" vertex="1">
          <mxGeometry x="810" y="33" width="120" height="60" as="geometry" />
        </mxCell>
        <mxCell id="pjRjvjTuiItraaZkLmIK-84" style="edgeStyle=none;rounded=0;orthogonalLoop=1;jettySize=auto;html=1;exitX=1;exitY=0.5;exitDx=0;exitDy=0;entryX=0;entryY=0.5;entryDx=0;entryDy=0;startArrow=open;startFill=0;endArrow=none;endFill=0;dashed=1;" parent="1" source="pjRjvjTuiItraaZkLmIK-79" target="pjRjvjTuiItraaZkLmIK-45" edge="1">
          <mxGeometry relative="1" as="geometry" />
        </mxCell>
        <mxCell id="pjRjvjTuiItraaZkLmIK-86" style="edgeStyle=none;rounded=0;orthogonalLoop=1;jettySize=auto;html=1;exitX=0.5;exitY=1;exitDx=0;exitDy=0;startArrow=none;startFill=0;endArrow=open;endFill=0;dashed=1;" parent="1" source="pjRjvjTuiItraaZkLmIK-79" target="pjRjvjTuiItraaZkLmIK-81" edge="1">
          <mxGeometry relative="1" as="geometry" />
        </mxCell>
        <mxCell id="pjRjvjTuiItraaZkLmIK-79" value="CONSULTAR&lt;br&gt;PERSONA" style="ellipse;whiteSpace=wrap;html=1;" parent="1" vertex="1">
          <mxGeometry x="200" y="353" width="120" height="80" as="geometry" />
        </mxCell>
        <mxCell id="pjRjvjTuiItraaZkLmIK-81" value="MODIFICAR&lt;br&gt;PERSONA" style="ellipse;whiteSpace=wrap;html=1;" parent="1" vertex="1">
          <mxGeometry x="280" y="503" width="120" height="80" as="geometry" />
        </mxCell>
        <mxCell id="pjRjvjTuiItraaZkLmIK-87" value="&lt;span style=&quot;background-color: rgb(255 , 255 , 255)&quot;&gt;&amp;lt;&amp;lt;extend&amp;gt;&amp;gt;&lt;/span&gt;" style="text;html=1;align=center;verticalAlign=middle;resizable=0;points=[];autosize=1;" parent="1" vertex="1">
          <mxGeometry x="450" y="673" width="80" height="20" as="geometry" />
        </mxCell>
        <mxCell id="pjRjvjTuiItraaZkLmIK-88" value="&lt;span style=&quot;background-color: rgb(255 , 255 , 255)&quot;&gt;&amp;lt;&amp;lt;extend&amp;gt;&amp;gt;&lt;/span&gt;" style="text;html=1;align=center;verticalAlign=middle;resizable=0;points=[];autosize=1;" parent="1" vertex="1">
          <mxGeometry x="253" y="463" width="80" height="20" as="geometry" />
        </mxCell>
        <mxCell id="Uhh7G0hbcJphL9YLGXfl-1" value="&amp;lt;&amp;lt;include&amp;gt;&amp;gt;" style="text;html=1;align=center;verticalAlign=middle;resizable=0;points=[];autosize=1;labelBackgroundColor=#ffffff;rotation=-75;" vertex="1" parent="1">
          <mxGeometry x="335" y="396" width="80" height="20" as="geometry" />
        </mxCell>
        <mxCell id="Uhh7G0hbcJphL9YLGXfl-2" value="&amp;lt;&amp;lt;include&amp;gt;&amp;gt;" style="text;html=1;align=center;verticalAlign=middle;resizable=0;points=[];autosize=1;labelBackgroundColor=#ffffff;" vertex="1" parent="1">
          <mxGeometry x="550" y="500" width="80" height="20" as="geometry" />
        </mxCell>
        <mxCell id="Uhh7G0hbcJphL9YLGXfl-7" value="&lt;span style=&quot;background-color: rgb(255 , 255 , 255)&quot;&gt;&amp;lt;&amp;lt;extend&amp;gt;&amp;gt;&lt;/span&gt;" style="text;html=1;align=center;verticalAlign=middle;resizable=0;points=[];autosize=1;" vertex="1" parent="1">
          <mxGeometry x="670" y="500" width="80" height="20" as="geometry" />
        </mxCell>
      </root>
    </mxGraphModel>
  </diagram>
</mxfile>
